<?xml version="1.0" encoding="UTF-8" standalone="no"?>
<!-- Created with Inkscape (http://www.inkscape.org/) -->

<svg
   width="124.37014mm"
   height="141.20023mm"
   viewBox="0 0 124.37014 141.20023"
   version="1.1"
   id="svg1"
   xmlns="http://www.w3.org/2000/svg"
   xmlns:svg="http://www.w3.org/2000/svg">
  <defs
     id="defs1" />
  <g
     id="layer1"
     transform="translate(-53.433752,-29.165475)">
    <path
       style="fill:none;stroke:#000000;stroke-width:0.264583px;stroke-linecap:butt;stroke-linejoin:miter;stroke-opacity:1"
       d="M 108.44189,170.29959 C 97.368602,121.42438 55.99364,128.58889 58.421161,128.29745 68.454581,127.09287 80.492322,105.29228 55.748298,104.62352 49.135527,80.28165 57.78675,72.334441 78.658558,77.513044 81.168909,49.28067 73.642966,47.297066 63.003212,53.457273 c 2.41942,-9.458366 -9.96234,-32.533818 15.273507,-21.001071 35.477511,1.832149 60.402171,10.434052 42.383981,46.584194 -10.49907,-0.816574 -16.91603,4.626082 -12.21881,27.110474 24.33437,-26.479294 49.39301,-55.104578 46.96604,-2.29103 -12.56767,2.87261 7.84319,5.89887 21.00107,23.67394 6.55606,8.85663 -14.13173,43.06279 -24.05577,25.58312 -22.9143,-40.36004 -50.7133,5.39263 -43.91134,17.18269 z"
       id="path3" />
  </g>
</svg>
