<?xml version="1.0" encoding="UTF-8" standalone="no"?>
<!-- Created with Inkscape (http://www.inkscape.org/) -->

<svg
   width="131.85741mm"
   height="143.29666mm"
   viewBox="0 0 131.85741 143.29666"
   version="1.1"
   id="svg1"
   xmlns="http://www.w3.org/2000/svg"
   xmlns:svg="http://www.w3.org/2000/svg">
  <defs
     id="defs1" />
  <g
     id="layer1"
     transform="translate(-46.62268,-27.127993)">
    <path
       style="fill:none;stroke:#000000;stroke-width:0.264583px;stroke-linecap:butt;stroke-linejoin:miter;stroke-opacity:1"
       d="M 108.44189,170.29959 C 59.113643,153.30351 65.709505,134.64735 58.421161,128.29745 55.089057,125.39439 49.487187,111.63424 55.748298,104.62352 49.135527,80.28165 37.931192,59.35196 58.803,64.530563 55.449789,54.502656 64.051902,48.793036 58.039322,47.729708 77.443611,37.382017 84.979667,20.938663 101.18698,29.783338 c 35.47751,1.832149 59.25666,1.269948 41.23847,37.42009 -10.49907,-0.816574 11.5776,-1.448899 12.2188,7.636754 0.97173,13.769347 0.28048,11.865468 10.30962,24.819444 -12.56767,2.872614 -1.70275,10.099084 11.45513,27.874154 6.55606,8.85663 -4.00286,24.20245 -24.05577,25.58312 -16.76404,1.15422 -49.37928,14.39729 -43.91134,17.18269 z"
       id="path3" />
  </g>
</svg>
